<svg xmlns="http://www.w3.org/2000/svg" width="128" height="58" viewBox="0 0 128 58">
    <path fill="#FFF" fill-rule="nonzero" d="M43.715 8.7h4.178a.447.447 0 0 1 .38.226l7.869 12.98a.448.448 0 0 0 .324.225.447.447 0 0 0 .43-.21l7.891-13.004a.447.447 0 0 1 .38-.225h4.185a.447.447 0 0 1 .406.225.452.452 0 0 1-.01.466L58.763 27.352v12.395c0 .249-.2.45-.447.45h-3.58a.449.449 0 0 1-.448-.45V27.361l-10.94-17.96a.448.448 0 0 1 .367-.7zM19.974 38.42l-2.857.69c-.215 0-.389-.22-.39-.495V20.02c0-.275.175-.497.39-.497l2.857-.692c.215 0 .39.223.39.498v18.595c-.001.274-.176.496-.39.496zm21.455 0l-2.858.69c-.214 0-.388-.22-.39-.495V20.02c0-.275.175-.497.39-.497l2.858-.692c.215 0 .39.223.39.498v18.595c-.002.274-.176.496-.39.496zm-11.637 6.186l-2.857.661c-.215 0-.39-.213-.39-.476V14.898c0-.263.175-.476.39-.476l2.857-.66c.215 0 .39.212.39.475V44.13c0 .263-.175.476-.39.476zm27.943.883a.443.443 0 0 1 .447.443v11.57a.44.44 0 0 1-.445.44H.442a.441.441 0 0 1-.442-.44V.44C0 .197.198 0 .442 0h41.11c.16.002.309.088.39.227l2.21 3.584a.488.488 0 0 1-.42.745H5.016a.441.441 0 0 0-.443.435v47.955c0 .243.198.44.443.44h48.122a.441.441 0 0 0 .443-.44V45.93c0-.243.198-.44.442-.44h3.713zm37.125-5.915h.01a.43.43 0 0 1-.035.422.465.465 0 0 1-.386.201h-4.357l-3.846-9.096h-11.5c-1.236 2.826-2.84 6.536-3.847 9.096h-5.08L78.763 8.691h3.409L94.86 39.574zm-11.04-12.69h.002c.254 0 .46-.198.46-.443a.41.41 0 0 0-.025-.146l-3.308-9.166a.458.458 0 0 0-.43-.314.46.46 0 0 0-.444.296l-3.386 9.166a.43.43 0 0 0 .047.413.465.465 0 0 0 .38.195h6.704zm36.763 5.528a11.39 11.39 0 0 0 2.814-4.677.494.494 0 0 1 .47-.346h3.64a.5.5 0 0 1 .386.181.466.466 0 0 1 .094.405l-.082.332a16.365 16.365 0 0 1-4.094 7.266c-2.752 2.75-6.612 4.624-10.88 4.624-4.267 0-8.122-1.832-10.875-4.624a16.459 16.459 0 0 1-4.003-6.858 15.287 15.287 0 0 1-.598-4.217c0-1.32.166-2.636.498-3.917a16.337 16.337 0 0 1 4.094-7.266c2.752-2.752 6.601-4.624 10.88-4.624 4.278 0 8.125 1.83 10.875 4.624a16.449 16.449 0 0 1 3.994 6.854c.07.243.134.49.191.736a.466.466 0 0 1-.093.4.5.5 0 0 1-.38.183h-3.64a.492.492 0 0 1-.472-.345 11.474 11.474 0 0 0-2.819-4.668c-1.972-1.99-4.676-3.332-7.659-3.332-2.982 0-5.688 1.35-7.656 3.332-4.415 4.452-4.415 11.484 0 15.937 1.97 1.992 4.674 3.333 7.656 3.333 2.983 0 5.69-1.34 7.66-3.333z"/>
</svg>
