<svg xmlns="http://www.w3.org/2000/svg" width="1475" height="348" viewBox="0 0 1475 348">
    <defs>
        <linearGradient id="a" x1="50%" x2="50%" y1="25.154%" y2="109.749%">
            <stop offset="0%" stop-color="#FFF" stop-opacity=".25"/>
            <stop offset="100%" stop-color="#140454" stop-opacity=".252"/>
        </linearGradient>
    </defs>
    <path fill="url(#a)" fill-rule="nonzero" d="M1485 997h3v3h-3v-3zm-23 0h3v3h-3v-3zm-23 0h3v3h-3v-3zm-23 0h3v3h-3v-3zm-23 0h3v3h-3v-3zm-23 0h3v3h-3v-3zm-23 0h3v3h-3v-3zm-23 0h3v3h-3v-3zm-23 0h3v3h-3v-3zm-23 0h3v3h-3v-3zm-23 0h3v3h-3v-3zm-23 0h3v3h-3v-3zm253-23h3v3h-3v-3zm-23 0h3v3h-3v-3zm-23 0h3v3h-3v-3zm-23 0h3v3h-3v-3zm-23 0h3v3h-3v-3zm-23 0h3v3h-3v-3zm-23 0h3v3h-3v-3zm-23 0h3v3h-3v-3zm-23 0h3v3h-3v-3zm-23 0h3v3h-3v-3zm-23 0h3v3h-3v-3zm-23 0h3v3h-3v-3zm253-23h3v3h-3v-3zm-23 0h3v3h-3v-3zm-23 0h3v3h-3v-3zm-23 0h3v3h-3v-3zm-23 0h3v3h-3v-3zm-23 0h3v3h-3v-3zm-23 0h3v3h-3v-3zm-23 0h3v3h-3v-3zm-23 0h3v3h-3v-3zm-23 0h3v3h-3v-3zm-23 0h3v3h-3v-3zm-23 0h3v3h-3v-3zm253-23h3v3h-3v-3zm-23 0h3v3h-3v-3zm-23 0h3v3h-3v-3zm-23 0h3v3h-3v-3zm-23 0h3v3h-3v-3zm-23 0h3v3h-3v-3zm-23 0h3v3h-3v-3zm-23 0h3v3h-3v-3zm-23 0h3v3h-3v-3zm-23 0h3v3h-3v-3zm-23 0h3v3h-3v-3zm-23 0h3v3h-3v-3zm253-23h3v3h-3v-3zm-23 0h3v3h-3v-3zm-23 0h3v3h-3v-3zm-23 0h3v3h-3v-3zm-23 0h3v3h-3v-3zm-23 0h3v3h-3v-3zm-23 0h3v3h-3v-3zm-23 0h3v3h-3v-3zm-23 0h3v3h-3v-3zm-23 0h3v3h-3v-3zm-23 0h3v3h-3v-3zm-23 0h3v3h-3v-3zm253-23h3v3h-3v-3zm-23 0h3v3h-3v-3zm-23 0h3v3h-3v-3zm-23 0h3v3h-3v-3zm-23 0h3v3h-3v-3zm-23 0h3v3h-3v-3zm-23 0h3v3h-3v-3zm-23 0h3v3h-3v-3zm-23 0h3v3h-3v-3zm-23 0h3v3h-3v-3zm-23 0h3v3h-3v-3zm-23 0h3v3h-3v-3zm-23 115h3v3h-3v-3zm-23 0h3v3h-3v-3zm-23 0h3v3h-3v-3zm-23 0h3v3h-3v-3zm-23 0h3v3h-3v-3zm-23 0h3v3h-3v-3zm-23 0h3v3h-3v-3zm-23 0h3v3h-3v-3zm-23 0h3v3h-3v-3zm-23 0h3v3h-3v-3zm-23 0h3v3h-3v-3zm-23 0h3v3h-3v-3zm-23 0h3v3h-3v-3zm-23 0h3v3h-3v-3zm-23 0h3v3h-3v-3zm-23 0h3v3h-3v-3zm-23 0h3v3h-3v-3zm-23 0h3v3h-3v-3zm-23 0h3v3h-3v-3zm414-23h3v3h-3v-3zm-23 0h3v3h-3v-3zm-23 0h3v3h-3v-3zm-23 0h3v3h-3v-3zm-23 0h3v3h-3v-3zm-23 0h3v3h-3v-3zm-23 0h3v3h-3v-3zm-23 0h3v3h-3v-3zm-23 0h3v3h-3v-3zm-23 0h3v3h-3v-3zm-23 0h3v3h-3v-3zm-23 0h3v3h-3v-3zm-23 0h3v3h-3v-3zm-23 0h3v3h-3v-3zm-23 0h3v3h-3v-3zm-23 0h3v3h-3v-3zm-23 0h3v3h-3v-3zm-23 0h3v3h-3v-3zm-23 0h3v3h-3v-3zm414-23h3v3h-3v-3zm-23 0h3v3h-3v-3zm-23 0h3v3h-3v-3zm-23 0h3v3h-3v-3zm-23 0h3v3h-3v-3zm-23 0h3v3h-3v-3zm-23 0h3v3h-3v-3zm-23 0h3v3h-3v-3zm-23 0h3v3h-3v-3zm-23 0h3v3h-3v-3zm-23 0h3v3h-3v-3zm-23 0h3v3h-3v-3zm-23 0h3v3h-3v-3zm-23 0h3v3h-3v-3zm-23 0h3v3h-3v-3zm-23 0h3v3h-3v-3zm-23 0h3v3h-3v-3zm-23 0h3v3h-3v-3zm-23 0h3v3h-3v-3zm414-23h3v3h-3v-3zm-23 0h3v3h-3v-3zm-23 0h3v3h-3v-3zm-23 0h3v3h-3v-3zm-23 0h3v3h-3v-3zm-23 0h3v3h-3v-3zm-23 0h3v3h-3v-3zm-23 0h3v3h-3v-3zm-23 0h3v3h-3v-3zm-23 0h3v3h-3v-3zm-23 0h3v3h-3v-3zm-23 0h3v3h-3v-3zm-23 0h3v3h-3v-3zm-23 0h3v3h-3v-3zm-23 0h3v3h-3v-3zm-23 0h3v3h-3v-3zm-23 0h3v3h-3v-3zm-23 0h3v3h-3v-3zm-23 0h3v3h-3v-3zm414-23h3v3h-3v-3zm-23 0h3v3h-3v-3zm-23 0h3v3h-3v-3zm-23 0h3v3h-3v-3zm-23 0h3v3h-3v-3zm-23 0h3v3h-3v-3zm-23 0h3v3h-3v-3zm-23 0h3v3h-3v-3zm-23 0h3v3h-3v-3zm-23 0h3v3h-3v-3zm-23 0h3v3h-3v-3zm-23 0h3v3h-3v-3zm-23 0h3v3h-3v-3zm-23 0h3v3h-3v-3zm-23 0h3v3h-3v-3zm-23 0h3v3h-3v-3zm-23 0h3v3h-3v-3zm-23 0h3v3h-3v-3zm-23 0h3v3h-3v-3zm414-23h3v3h-3v-3zm-23 0h3v3h-3v-3zm-23 0h3v3h-3v-3zm-23 0h3v3h-3v-3zm-23 0h3v3h-3v-3zm-23 0h3v3h-3v-3zm-23 0h3v3h-3v-3zm-23 0h3v3h-3v-3zm-23 0h3v3h-3v-3zm-23 0h3v3h-3v-3zm-23 0h3v3h-3v-3zm-23 0h3v3h-3v-3zm-23 0h3v3h-3v-3zm-23 0h3v3h-3v-3zm-23 0h3v3h-3v-3zm-23 0h3v3h-3v-3zm-23 0h3v3h-3v-3zm-23 0h3v3h-3v-3zm-23 0h3v3h-3v-3zm-23 115h3v3h-3v-3zm-23 0h3v3h-3v-3zm-23 0h3v3h-3v-3zm-23 0h3v3h-3v-3zm-23 0h3v3h-3v-3zm-23 0h3v3h-3v-3zm-23 0h3v3h-3v-3zm-23 0h3v3h-3v-3zm-23 0h3v3h-3v-3zm-23 0h3v3h-3v-3zm-23 0h3v3h-3v-3zm-23 0h3v3h-3v-3zm-23 0h3v3h-3v-3zm-23 0h3v3h-3v-3zm-23 0h3v3h-3v-3zm-23 0h3v3h-3v-3zm-23 0h3v3h-3v-3zm-23 0h3v3h-3v-3zm-23 0h3v3h-3v-3zm414-23h3v3h-3v-3zm-23 0h3v3h-3v-3zm-23 0h3v3h-3v-3zm-23 0h3v3h-3v-3zm-23 0h3v3h-3v-3zm-23 0h3v3h-3v-3zm-23 0h3v3h-3v-3zm-23 0h3v3h-3v-3zm-23 0h3v3h-3v-3zm-23 0h3v3h-3v-3zm-23 0h3v3h-3v-3zm-23 0h3v3h-3v-3zm-23 0h3v3h-3v-3zm-23 0h3v3h-3v-3zm-23 0h3v3h-3v-3zm-23 0h3v3h-3v-3zm-23 0h3v3h-3v-3zm-23 0h3v3h-3v-3zm-23 0h3v3h-3v-3zm414-23h3v3h-3v-3zm-23 0h3v3h-3v-3zm-23 0h3v3h-3v-3zm-23 0h3v3h-3v-3zm-23 0h3v3h-3v-3zm-23 0h3v3h-3v-3zm-23 0h3v3h-3v-3zm-23 0h3v3h-3v-3zm-23 0h3v3h-3v-3zm-23 0h3v3h-3v-3zm-23 0h3v3h-3v-3zm-23 0h3v3h-3v-3zm-23 0h3v3h-3v-3zm-23 0h3v3h-3v-3zm-23 0h3v3h-3v-3zm-23 0h3v3h-3v-3zm-23 0h3v3h-3v-3zm-23 0h3v3h-3v-3zm-23 0h3v3h-3v-3zm414-23h3v3h-3v-3zm-23 0h3v3h-3v-3zm-23 0h3v3h-3v-3zm-23 0h3v3h-3v-3zm-23 0h3v3h-3v-3zm-23 0h3v3h-3v-3zm-23 0h3v3h-3v-3zm-23 0h3v3h-3v-3zm-23 0h3v3h-3v-3zm-23 0h3v3h-3v-3zm-23 0h3v3h-3v-3zm-23 0h3v3h-3v-3zm-23 0h3v3h-3v-3zm-23 0h3v3h-3v-3zm-23 0h3v3h-3v-3zm-23 0h3v3h-3v-3zm-23 0h3v3h-3v-3zm-23 0h3v3h-3v-3zm-23 0h3v3h-3v-3zm414-23h3v3h-3v-3zm-23 0h3v3h-3v-3zm-23 0h3v3h-3v-3zm-23 0h3v3h-3v-3zm-23 0h3v3h-3v-3zm-23 0h3v3h-3v-3zm-23 0h3v3h-3v-3zm-23 0h3v3h-3v-3zm-23 0h3v3h-3v-3zm-23 0h3v3h-3v-3zm-23 0h3v3h-3v-3zm-23 0h3v3h-3v-3zm-23 0h3v3h-3v-3zm-23 0h3v3h-3v-3zm-23 0h3v3h-3v-3zm-23 0h3v3h-3v-3zm-23 0h3v3h-3v-3zm-23 0h3v3h-3v-3zm-23 0h3v3h-3v-3zm414-23h3v3h-3v-3zm-23 0h3v3h-3v-3zm-23 0h3v3h-3v-3zm-23 0h3v3h-3v-3zm-23 0h3v3h-3v-3zm-23 0h3v3h-3v-3zm-23 0h3v3h-3v-3zm-23 0h3v3h-3v-3zm-23 0h3v3h-3v-3zm-23 0h3v3h-3v-3zm-23 0h3v3h-3v-3zm-23 0h3v3h-3v-3zm-23 0h3v3h-3v-3zm-23 0h3v3h-3v-3zm-23 0h3v3h-3v-3zm-23 0h3v3h-3v-3zm-23 0h3v3h-3v-3zm-23 0h3v3h-3v-3zm-46 115h3v3h-3v-3zm-23 0h3v3h-3v-3zm-23 0h3v3h-3v-3zm-23 0h3v3h-3v-3zm-23 0h3v3h-3v-3zm-23 0h3v3h-3v-3zm-23 0h3v3h-3v-3zm-23 0h3v3h-3v-3zm-23 0h3v3h-3v-3zm-23 0h3v3h-3v-3zm-23 0h3v3h-3v-3zm-23 0h3v3h-3v-3zm-23 0h3v3h-3v-3zm-23 0h3v3h-3v-3zm-23 0h3v3h-3v-3zm322-23h3v3h-3v-3zm-23 0h3v3h-3v-3zm-23 0h3v3h-3v-3zm-23 0h3v3h-3v-3zm-23 0h3v3h-3v-3zm-23 0h3v3h-3v-3zm-23 0h3v3h-3v-3zm-23 0h3v3h-3v-3zm-23 0h3v3h-3v-3zm-23 0h3v3h-3v-3zm-23 0h3v3h-3v-3zm-23 0h3v3h-3v-3zm-23 0h3v3h-3v-3zm-23 0h3v3h-3v-3zm-23 0h3v3h-3v-3zm322-23h3v3h-3v-3zm-23 0h3v3h-3v-3zm-23 0h3v3h-3v-3zm-23 0h3v3h-3v-3zm-23 0h3v3h-3v-3zm-23 0h3v3h-3v-3zm-23 0h3v3h-3v-3zm-23 0h3v3h-3v-3zm-23 0h3v3h-3v-3zm-23 0h3v3h-3v-3zm-23 0h3v3h-3v-3zm-23 0h3v3h-3v-3zm-23 0h3v3h-3v-3zm-23 0h3v3h-3v-3zm-23 0h3v3h-3v-3zm322-23h3v3h-3v-3zm-23 0h3v3h-3v-3zm-23 0h3v3h-3v-3zm-23 0h3v3h-3v-3zm-23 0h3v3h-3v-3zm-23 0h3v3h-3v-3zm-23 0h3v3h-3v-3zm-23 0h3v3h-3v-3zm-23 0h3v3h-3v-3zm-23 0h3v3h-3v-3zm-23 0h3v3h-3v-3zm-23 0h3v3h-3v-3zm-23 0h3v3h-3v-3zm-23 0h3v3h-3v-3zm-23 0h3v3h-3v-3zm322-23h3v3h-3v-3zm-23 0h3v3h-3v-3zm-23 0h3v3h-3v-3zm-23 0h3v3h-3v-3zm-23 0h3v3h-3v-3zm-23 0h3v3h-3v-3zm-23 0h3v3h-3v-3zm-23 0h3v3h-3v-3zm-23 0h3v3h-3v-3zm-23 0h3v3h-3v-3zm-23 0h3v3h-3v-3zm-23 0h3v3h-3v-3zm-23 0h3v3h-3v-3zm-23 0h3v3h-3v-3zm-23 0h3v3h-3v-3zm345-23h3v3h-3v-3zm-23 0h3v3h-3v-3zm-23 0h3v3h-3v-3zm-23 0h3v3h-3v-3zm-23 0h3v3h-3v-3zm-23 0h3v3h-3v-3zm-23 0h3v3h-3v-3zm-23 0h3v3h-3v-3zm-23 0h3v3h-3v-3zm-23 0h3v3h-3v-3zm-23 0h3v3h-3v-3zm-23 0h3v3h-3v-3zm-23 0h3v3h-3v-3zm-23 0h3v3h-3v-3zm-23 0h3v3h-3v-3zm-23 0h3v3h-3v-3zm1472-23h3v3h-3v-3zm-23 0h3v3h-3v-3zm-23 0h3v3h-3v-3zm-23 0h3v3h-3v-3zm-23 0h3v3h-3v-3zm-23 0h3v3h-3v-3zm-23 0h3v3h-3v-3zm-23 0h3v3h-3v-3zm-23 0h3v3h-3v-3zm-23 0h3v3h-3v-3zm-23 0h3v3h-3v-3zm-23 0h3v3h-3v-3zm253-23h3v3h-3v-3zm-23 0h3v3h-3v-3zm-23 0h3v3h-3v-3zm-23 0h3v3h-3v-3zm-23 0h3v3h-3v-3zm-23 0h3v3h-3v-3zm-23 0h3v3h-3v-3zm-23 0h3v3h-3v-3zm-23 0h3v3h-3v-3zm-23 0h3v3h-3v-3zm-23 0h3v3h-3v-3zm-23 0h3v3h-3v-3zm253-23h3v3h-3v-3zm-23 0h3v3h-3v-3zm-23 0h3v3h-3v-3zm-23 0h3v3h-3v-3zm-23 0h3v3h-3v-3zm-23 0h3v3h-3v-3zm-23 0h3v3h-3v-3zm-23 0h3v3h-3v-3zm-23 0h3v3h-3v-3zm-23 0h3v3h-3v-3zm-23 0h3v3h-3v-3zm-23 0h3v3h-3v-3zm253-23h3v3h-3v-3zm-23 0h3v3h-3v-3zm-23 0h3v3h-3v-3zm-23 0h3v3h-3v-3zm-23 0h3v3h-3v-3zm-23 0h3v3h-3v-3zm-23 0h3v3h-3v-3zm-23 0h3v3h-3v-3zm-23 0h3v3h-3v-3zm-23 0h3v3h-3v-3zm-23 0h3v3h-3v-3zm-23 0h3v3h-3v-3zm253-23h3v3h-3v-3zm-23 0h3v3h-3v-3zm-23 0h3v3h-3v-3zm-23 0h3v3h-3v-3zm-23 0h3v3h-3v-3zm-23 0h3v3h-3v-3zm-23 0h3v3h-3v-3zm-23 0h3v3h-3v-3zm-23 0h3v3h-3v-3zm-23 0h3v3h-3v-3zm-23 0h3v3h-3v-3zm-23 0h3v3h-3v-3zm-23 92h3v3h-3v-3zm-23 0h3v3h-3v-3zm-23 0h3v3h-3v-3zm-23 0h3v3h-3v-3zm-23 0h3v3h-3v-3zm-23 0h3v3h-3v-3zm-23 0h3v3h-3v-3zm-23 0h3v3h-3v-3zm-23 0h3v3h-3v-3zm-23 0h3v3h-3v-3zm-23 0h3v3h-3v-3zm-23 0h3v3h-3v-3zm-23 0h3v3h-3v-3zm-23 0h3v3h-3v-3zm-23 0h3v3h-3v-3zm-23 0h3v3h-3v-3zm-23 0h3v3h-3v-3zm-23 0h3v3h-3v-3zm-23 0h3v3h-3v-3zm414-23h3v3h-3v-3zm-23 0h3v3h-3v-3zm-23 0h3v3h-3v-3zm-23 0h3v3h-3v-3zm-23 0h3v3h-3v-3zm-23 0h3v3h-3v-3zm-23 0h3v3h-3v-3zm-23 0h3v3h-3v-3zm-23 0h3v3h-3v-3zm-23 0h3v3h-3v-3zm-23 0h3v3h-3v-3zm-23 0h3v3h-3v-3zm-23 0h3v3h-3v-3zm-23 0h3v3h-3v-3zm-23 0h3v3h-3v-3zm-23 0h3v3h-3v-3zm-23 0h3v3h-3v-3zm-23 0h3v3h-3v-3zm-23 0h3v3h-3v-3zm414-23h3v3h-3v-3zm-23 0h3v3h-3v-3zm-23 0h3v3h-3v-3zm-23 0h3v3h-3v-3zm-23 0h3v3h-3v-3zm-23 0h3v3h-3v-3zm-23 0h3v3h-3v-3zm-23 0h3v3h-3v-3zm-23 0h3v3h-3v-3zm-23 0h3v3h-3v-3zm-23 0h3v3h-3v-3zm-23 0h3v3h-3v-3zm-23 0h3v3h-3v-3zm-23 0h3v3h-3v-3zm-23 0h3v3h-3v-3zm-23 0h3v3h-3v-3zm-23 0h3v3h-3v-3zm-23 0h3v3h-3v-3zm-23 0h3v3h-3v-3zm414-23h3v3h-3v-3zm-23 0h3v3h-3v-3zm-23 0h3v3h-3v-3zm-23 0h3v3h-3v-3zm-23 0h3v3h-3v-3zm-23 0h3v3h-3v-3zm-23 0h3v3h-3v-3zm-23 0h3v3h-3v-3zm-23 0h3v3h-3v-3zm-23 0h3v3h-3v-3zm-23 0h3v3h-3v-3zm-23 0h3v3h-3v-3zm-23 0h3v3h-3v-3zm-23 0h3v3h-3v-3zm-23 0h3v3h-3v-3zm-23 0h3v3h-3v-3zm-23 0h3v3h-3v-3zm-23 0h3v3h-3v-3zm-23 0h3v3h-3v-3zm414-23h3v3h-3v-3zm-23 0h3v3h-3v-3zm-23 0h3v3h-3v-3zm-23 0h3v3h-3v-3zm-23 0h3v3h-3v-3zm-23 0h3v3h-3v-3zm-23 0h3v3h-3v-3zm-23 0h3v3h-3v-3zm-23 0h3v3h-3v-3zm-23 0h3v3h-3v-3zm-23 0h3v3h-3v-3zm-23 0h3v3h-3v-3zm-23 0h3v3h-3v-3zm-23 0h3v3h-3v-3zm-23 0h3v3h-3v-3zm-23 0h3v3h-3v-3zm-23 0h3v3h-3v-3zm-23 0h3v3h-3v-3zm-23 0h3v3h-3v-3zm-23 92h3v3h-3v-3zm-23 0h3v3h-3v-3zm-23 0h3v3h-3v-3zm-23 0h3v3h-3v-3zm-23 0h3v3h-3v-3zm-23 0h3v3h-3v-3zm-23 0h3v3h-3v-3zm-23 0h3v3h-3v-3zm-23 0h3v3h-3v-3zm-23 0h3v3h-3v-3zm-23 0h3v3h-3v-3zm-23 0h3v3h-3v-3zm-23 0h3v3h-3v-3zm-23 0h3v3h-3v-3zm-23 0h3v3h-3v-3zm-23 0h3v3h-3v-3zm-23 0h3v3h-3v-3zm-23 0h3v3h-3v-3zm-23 0h3v3h-3v-3zm414-23h3v3h-3v-3zm-23 0h3v3h-3v-3zm-23 0h3v3h-3v-3zm-23 0h3v3h-3v-3zm-23 0h3v3h-3v-3zm-23 0h3v3h-3v-3zm-23 0h3v3h-3v-3zm-23 0h3v3h-3v-3zm-23 0h3v3h-3v-3zm-23 0h3v3h-3v-3zm-23 0h3v3h-3v-3zm-23 0h3v3h-3v-3zm-23 0h3v3h-3v-3zm-23 0h3v3h-3v-3zm-23 0h3v3h-3v-3zm-23 0h3v3h-3v-3zm-23 0h3v3h-3v-3zm-23 0h3v3h-3v-3zm-23 0h3v3h-3v-3zm414-23h3v3h-3v-3zm-23 0h3v3h-3v-3zm-23 0h3v3h-3v-3zm-23 0h3v3h-3v-3zm-23 0h3v3h-3v-3zm-23 0h3v3h-3v-3zm-23 0h3v3h-3v-3zm-23 0h3v3h-3v-3zm-23 0h3v3h-3v-3zm-23 0h3v3h-3v-3zm-23 0h3v3h-3v-3zm-23 0h3v3h-3v-3zm-23 0h3v3h-3v-3zm-23 0h3v3h-3v-3zm-23 0h3v3h-3v-3zm-23 0h3v3h-3v-3zm-23 0h3v3h-3v-3zm-23 0h3v3h-3v-3zm-23 0h3v3h-3v-3zm414-23h3v3h-3v-3zm-23 0h3v3h-3v-3zm-23 0h3v3h-3v-3zm-23 0h3v3h-3v-3zm-23 0h3v3h-3v-3zm-23 0h3v3h-3v-3zm-23 0h3v3h-3v-3zm-23 0h3v3h-3v-3zm-23 0h3v3h-3v-3zm-23 0h3v3h-3v-3zm-23 0h3v3h-3v-3zm-23 0h3v3h-3v-3zm-23 0h3v3h-3v-3zm-23 0h3v3h-3v-3zm-23 0h3v3h-3v-3zm-23 0h3v3h-3v-3zm-23 0h3v3h-3v-3zm-23 0h3v3h-3v-3zm-23 0h3v3h-3v-3zm414-23h3v3h-3v-3zm-23 0h3v3h-3v-3zm-23 0h3v3h-3v-3zm-23 0h3v3h-3v-3zm-23 0h3v3h-3v-3zm-23 0h3v3h-3v-3zm-23 0h3v3h-3v-3zm-23 0h3v3h-3v-3zm-23 0h3v3h-3v-3zm-23 0h3v3h-3v-3zm-23 0h3v3h-3v-3zm-23 0h3v3h-3v-3zm-23 0h3v3h-3v-3zm-23 0h3v3h-3v-3zm-23 0h3v3h-3v-3zm-23 0h3v3h-3v-3zm-23 0h3v3h-3v-3zm-23 0h3v3h-3v-3zm-46 92h3v3h-3v-3zm-23 0h3v3h-3v-3zm-23 0h3v3h-3v-3zm-23 0h3v3h-3v-3zm-23 0h3v3h-3v-3zm-23 0h3v3h-3v-3zm-23 0h3v3h-3v-3zm-23 0h3v3h-3v-3zm-23 0h3v3h-3v-3zm-23 0h3v3h-3v-3zm-23 0h3v3h-3v-3zm-23 0h3v3h-3v-3zm-23 0h3v3h-3v-3zm-23 0h3v3h-3v-3zm-23 0h3v3h-3v-3zm322-23h3v3h-3v-3zm-23 0h3v3h-3v-3zm-23 0h3v3h-3v-3zm-23 0h3v3h-3v-3zm-23 0h3v3h-3v-3zm-23 0h3v3h-3v-3zm-23 0h3v3h-3v-3zm-23 0h3v3h-3v-3zm-23 0h3v3h-3v-3zm-23 0h3v3h-3v-3zm-23 0h3v3h-3v-3zm-23 0h3v3h-3v-3zm-23 0h3v3h-3v-3zm-23 0h3v3h-3v-3zm-23 0h3v3h-3v-3zm322-23h3v3h-3v-3zm-23 0h3v3h-3v-3zm-23 0h3v3h-3v-3zm-23 0h3v3h-3v-3zm-23 0h3v3h-3v-3zm-23 0h3v3h-3v-3zm-23 0h3v3h-3v-3zm-23 0h3v3h-3v-3zm-23 0h3v3h-3v-3zm-23 0h3v3h-3v-3zm-23 0h3v3h-3v-3zm-23 0h3v3h-3v-3zm-23 0h3v3h-3v-3zm-23 0h3v3h-3v-3zm-23 0h3v3h-3v-3zm322-23h3v3h-3v-3zm-23 0h3v3h-3v-3zm-23 0h3v3h-3v-3zm-23 0h3v3h-3v-3zm-23 0h3v3h-3v-3zm-23 0h3v3h-3v-3zm-23 0h3v3h-3v-3zm-23 0h3v3h-3v-3zm-23 0h3v3h-3v-3zm-23 0h3v3h-3v-3zm-23 0h3v3h-3v-3zm-23 0h3v3h-3v-3zm-23 0h3v3h-3v-3zm-23 0h3v3h-3v-3zm-23 0h3v3h-3v-3zm345-23h3v3h-3v-3zm-23 0h3v3h-3v-3zm-23 0h3v3h-3v-3zm-23 0h3v3h-3v-3zm-23 0h3v3h-3v-3zm-23 0h3v3h-3v-3zm-23 0h3v3h-3v-3zm-23 0h3v3h-3v-3zm-23 0h3v3h-3v-3zm-23 0h3v3h-3v-3zm-23 0h3v3h-3v-3zm-23 0h3v3h-3v-3zm-23 0h3v3h-3v-3zm-23 0h3v3h-3v-3zm-23 0h3v3h-3v-3zm-23 0h3v3h-3v-3zm1472-23h3v3h-3v-3zm-23 0h3v3h-3v-3zm-23 0h3v3h-3v-3zm-23 0h3v3h-3v-3zm-23 0h3v3h-3v-3zm-23 0h3v3h-3v-3zm-23 0h3v3h-3v-3zm-23 0h3v3h-3v-3zm-23 0h3v3h-3v-3zm-23 0h3v3h-3v-3zm-23 0h3v3h-3v-3zm-23 0h3v3h-3v-3zm253-23h3v3h-3v-3zm-23 0h3v3h-3v-3zm-23 0h3v3h-3v-3zm-23 0h3v3h-3v-3zm-23 0h3v3h-3v-3zm-23 0h3v3h-3v-3zm-23 0h3v3h-3v-3zm-23 0h3v3h-3v-3zm-23 0h3v3h-3v-3zm-23 0h3v3h-3v-3zm-23 0h3v3h-3v-3zm-23 0h3v3h-3v-3zm253-23h3v3h-3v-3zm-23 0h3v3h-3v-3zm-23 0h3v3h-3v-3zm-23 0h3v3h-3v-3zm-23 0h3v3h-3v-3zm-23 0h3v3h-3v-3zm-23 0h3v3h-3v-3zm-23 0h3v3h-3v-3zm-23 0h3v3h-3v-3zm-23 0h3v3h-3v-3zm-23 0h3v3h-3v-3zm-23 0h3v3h-3v-3zm253-23h3v3h-3v-3zm-23 0h3v3h-3v-3zm-23 0h3v3h-3v-3zm-23 0h3v3h-3v-3zm-23 0h3v3h-3v-3zm-23 0h3v3h-3v-3zm-23 0h3v3h-3v-3zm-23 0h3v3h-3v-3zm-23 0h3v3h-3v-3zm-23 0h3v3h-3v-3zm-23 0h3v3h-3v-3zm-23 0h3v3h-3v-3zm253-23h3v3h-3v-3zm-23 0h3v3h-3v-3zm-23 0h3v3h-3v-3zm-23 0h3v3h-3v-3zm-23 0h3v3h-3v-3zm-23 0h3v3h-3v-3zm-23 0h3v3h-3v-3zm-23 0h3v3h-3v-3zm-23 0h3v3h-3v-3zm-23 0h3v3h-3v-3zm-23 0h3v3h-3v-3zm-23 0h3v3h-3v-3zm-23 92h3v3h-3v-3zm-23 0h3v3h-3v-3zm-23 0h3v3h-3v-3zm-23 0h3v3h-3v-3zm-23 0h3v3h-3v-3zm-23 0h3v3h-3v-3zm-23 0h3v3h-3v-3zm-23 0h3v3h-3v-3zm-23 0h3v3h-3v-3zm-23 0h3v3h-3v-3zm-23 0h3v3h-3v-3zm-23 0h3v3h-3v-3zm-23 0h3v3h-3v-3zm-23 0h3v3h-3v-3zm-23 0h3v3h-3v-3zm-23 0h3v3h-3v-3zm-23 0h3v3h-3v-3zm-23 0h3v3h-3v-3zm-23 0h3v3h-3v-3zm414-23h3v3h-3v-3zm-23 0h3v3h-3v-3zm-23 0h3v3h-3v-3zm-23 0h3v3h-3v-3zm-23 0h3v3h-3v-3zm-23 0h3v3h-3v-3zm-23 0h3v3h-3v-3zm-23 0h3v3h-3v-3zm-23 0h3v3h-3v-3zm-23 0h3v3h-3v-3zm-23 0h3v3h-3v-3zm-23 0h3v3h-3v-3zm-23 0h3v3h-3v-3zm-23 0h3v3h-3v-3zm-23 0h3v3h-3v-3zm-23 0h3v3h-3v-3zm-23 0h3v3h-3v-3zm-23 0h3v3h-3v-3zm-23 0h3v3h-3v-3zm414-23h3v3h-3v-3zm-23 0h3v3h-3v-3zm-23 0h3v3h-3v-3zm-23 0h3v3h-3v-3zm-23 0h3v3h-3v-3zm-23 0h3v3h-3v-3zm-23 0h3v3h-3v-3zm-23 0h3v3h-3v-3zm-23 0h3v3h-3v-3zm-23 0h3v3h-3v-3zm-23 0h3v3h-3v-3zm-23 0h3v3h-3v-3zm-23 0h3v3h-3v-3zm-23 0h3v3h-3v-3zm-23 0h3v3h-3v-3zm-23 0h3v3h-3v-3zm-23 0h3v3h-3v-3zm-23 0h3v3h-3v-3zm-23 0h3v3h-3v-3zm414-23h3v3h-3v-3zm-23 0h3v3h-3v-3zm-23 0h3v3h-3v-3zm-23 0h3v3h-3v-3zm-23 0h3v3h-3v-3zm-23 0h3v3h-3v-3zm-23 0h3v3h-3v-3zm-23 0h3v3h-3v-3zm-23 0h3v3h-3v-3zm-23 0h3v3h-3v-3zm-23 0h3v3h-3v-3zm-23 0h3v3h-3v-3zm-23 0h3v3h-3v-3zm-23 0h3v3h-3v-3zm-23 0h3v3h-3v-3zm-23 0h3v3h-3v-3zm-23 0h3v3h-3v-3zm-23 0h3v3h-3v-3zm-23 0h3v3h-3v-3zm414-23h3v3h-3v-3zm-23 0h3v3h-3v-3zm-23 0h3v3h-3v-3zm-23 0h3v3h-3v-3zm-23 0h3v3h-3v-3zm-23 0h3v3h-3v-3zm-23 0h3v3h-3v-3zm-23 0h3v3h-3v-3zm-23 0h3v3h-3v-3zm-23 0h3v3h-3v-3zm-23 0h3v3h-3v-3zm-23 0h3v3h-3v-3zm-23 0h3v3h-3v-3zm-23 0h3v3h-3v-3zm-23 0h3v3h-3v-3zm-23 0h3v3h-3v-3zm-23 0h3v3h-3v-3zm-23 0h3v3h-3v-3zm-23 0h3v3h-3v-3zm-23 92h3v3h-3v-3zm-23 0h3v3h-3v-3zm-23 0h3v3h-3v-3zm-23 0h3v3h-3v-3zm-23 0h3v3h-3v-3zm-23 0h3v3h-3v-3zm-23 0h3v3h-3v-3zm-23 0h3v3h-3v-3zm-23 0h3v3h-3v-3zm-23 0h3v3h-3v-3zm-23 0h3v3h-3v-3zm-23 0h3v3h-3v-3zm-23 0h3v3h-3v-3zm-23 0h3v3h-3v-3zm-23 0h3v3h-3v-3zm-23 0h3v3h-3v-3zm-23 0h3v3h-3v-3zm-23 0h3v3h-3v-3zm-23 0h3v3h-3v-3zm414-23h3v3h-3v-3zm-23 0h3v3h-3v-3zm-23 0h3v3h-3v-3zm-23 0h3v3h-3v-3zm-23 0h3v3h-3v-3zm-23 0h3v3h-3v-3zm-23 0h3v3h-3v-3zm-23 0h3v3h-3v-3zm-23 0h3v3h-3v-3zm-23 0h3v3h-3v-3zm-23 0h3v3h-3v-3zm-23 0h3v3h-3v-3zm-23 0h3v3h-3v-3zm-23 0h3v3h-3v-3zm-23 0h3v3h-3v-3zm-23 0h3v3h-3v-3zm-23 0h3v3h-3v-3zm-23 0h3v3h-3v-3zm-23 0h3v3h-3v-3zm414-23h3v3h-3v-3zm-23 0h3v3h-3v-3zm-23 0h3v3h-3v-3zm-23 0h3v3h-3v-3zm-23 0h3v3h-3v-3zm-23 0h3v3h-3v-3zm-23 0h3v3h-3v-3zm-23 0h3v3h-3v-3zm-23 0h3v3h-3v-3zm-23 0h3v3h-3v-3zm-23 0h3v3h-3v-3zm-23 0h3v3h-3v-3zm-23 0h3v3h-3v-3zm-23 0h3v3h-3v-3zm-23 0h3v3h-3v-3zm-23 0h3v3h-3v-3zm-23 0h3v3h-3v-3zm-23 0h3v3h-3v-3zm-23 0h3v3h-3v-3zm414-23h3v3h-3v-3zm-23 0h3v3h-3v-3zm-23 0h3v3h-3v-3zm-23 0h3v3h-3v-3zm-23 0h3v3h-3v-3zm-23 0h3v3h-3v-3zm-23 0h3v3h-3v-3zm-23 0h3v3h-3v-3zm-23 0h3v3h-3v-3zm-23 0h3v3h-3v-3zm-23 0h3v3h-3v-3zm-23 0h3v3h-3v-3zm-23 0h3v3h-3v-3zm-23 0h3v3h-3v-3zm-23 0h3v3h-3v-3zm-23 0h3v3h-3v-3zm-23 0h3v3h-3v-3zm-23 0h3v3h-3v-3zm-23 0h3v3h-3v-3zm414-23h3v3h-3v-3zm-23 0h3v3h-3v-3zm-23 0h3v3h-3v-3zm-23 0h3v3h-3v-3zm-23 0h3v3h-3v-3zm-23 0h3v3h-3v-3zm-23 0h3v3h-3v-3zm-23 0h3v3h-3v-3zm-23 0h3v3h-3v-3zm-23 0h3v3h-3v-3zm-23 0h3v3h-3v-3zm-23 0h3v3h-3v-3zm-23 0h3v3h-3v-3zm-23 0h3v3h-3v-3zm-23 0h3v3h-3v-3zm-23 0h3v3h-3v-3zm-23 0h3v3h-3v-3zm-23 0h3v3h-3v-3zm-23 0h3v3h-3v-3zm-23 92h3v3h-3v-3zm-23 0h3v3h-3v-3zm-23 0h3v3h-3v-3zm-23 0h3v3h-3v-3zm-23 0h3v3h-3v-3zm-23 0h3v3h-3v-3zm-23 0h3v3h-3v-3zm-23 0h3v3h-3v-3zm-23 0h3v3h-3v-3zm-23 0h3v3h-3v-3zm-23 0h3v3h-3v-3zm-23 0h3v3h-3v-3zm-23 0h3v3h-3v-3zm-23 0h3v3h-3v-3zm-23 0h3v3h-3v-3zm322-23h3v3h-3v-3zm-23 0h3v3h-3v-3zm-23 0h3v3h-3v-3zm-23 0h3v3h-3v-3zm-23 0h3v3h-3v-3zm-23 0h3v3h-3v-3zm-23 0h3v3h-3v-3zm-23 0h3v3h-3v-3zm-23 0h3v3h-3v-3zm-23 0h3v3h-3v-3zm-23 0h3v3h-3v-3zm-23 0h3v3h-3v-3zm-23 0h3v3h-3v-3zm-23 0h3v3h-3v-3zm-23 0h3v3h-3v-3zm322-23h3v3h-3v-3zm-23 0h3v3h-3v-3zm-23 0h3v3h-3v-3zm-23 0h3v3h-3v-3zm-23 0h3v3h-3v-3zm-23 0h3v3h-3v-3zm-23 0h3v3h-3v-3zm-23 0h3v3h-3v-3zm-23 0h3v3h-3v-3zm-23 0h3v3h-3v-3zm-23 0h3v3h-3v-3zm-23 0h3v3h-3v-3zm-23 0h3v3h-3v-3zm-23 0h3v3h-3v-3zm-23 0h3v3h-3v-3zm322-23h3v3h-3v-3zm-23 0h3v3h-3v-3zm-23 0h3v3h-3v-3zm-23 0h3v3h-3v-3zm-23 0h3v3h-3v-3zm-23 0h3v3h-3v-3zm-23 0h3v3h-3v-3zm-23 0h3v3h-3v-3zm-23 0h3v3h-3v-3zm-23 0h3v3h-3v-3zm-23 0h3v3h-3v-3zm-23 0h3v3h-3v-3zm-23 0h3v3h-3v-3zm-23 0h3v3h-3v-3zm-23 0h3v3h-3v-3zm322-23h3v3h-3v-3zm-23 0h3v3h-3v-3zm-23 0h3v3h-3v-3zm-23 0h3v3h-3v-3zm-23 0h3v3h-3v-3zm-23 0h3v3h-3v-3zm-23 0h3v3h-3v-3zm-23 0h3v3h-3v-3zm-23 0h3v3h-3v-3zm-23 0h3v3h-3v-3zm-23 0h3v3h-3v-3zm-23 0h3v3h-3v-3zm-23 0h3v3h-3v-3zm-23 0h3v3h-3v-3zm-23 0h3v3h-3v-3z" transform="translate(-13 -652)"/>
</svg>
